<?xml version="1.0" encoding="UTF-8" standalone="yes"?>
<svg xmlns="http://www.w3.org/2000/svg" xmlns:xlink="http://www.w3.org/1999/xlink" height="653pt" style="width:472px;height:653px;" version="1.1" viewBox="0 0 472 653" width="472pt">
  <defs>
    <filter height="300%" id="f1" width="300%" x="-1" y="-1">
      <feGaussianBlur result="blurOut" stdDeviation="2.0"/>
      <feColorMatrix in="blurOut" result="blurOut2" type="matrix" values="0 0 0 0 0 0 0 0 0 0 0 0 0 0 0 0 0 0 .4 0"/>
      <feOffset dx="4.0" dy="4.0" in="blurOut2" result="blurOut3"/>
      <feBlend in="SourceGraphic" in2="blurOut3" mode="normal"/>
    </filter>
  </defs>
  <g>
    <text fill="#000000" font-family="sans-serif" font-size="18" lengthAdjust="spacingAndGlyphs" textLength="139" x="171" y="17.4023">ExampleProcess</text>
    <ellipse cx="244" cy="39.1992" fill="#000000" filter="url(#f1)" rx="10" ry="10" style="stroke: none; stroke-width: 1.0;"/>
    <rect fill="#FEFECE" filter="url(#f1)" height="34.1328" rx="12.5" ry="12.5" style="stroke: #A80036; stroke-width: 1.5;" width="110" x="189" y="90.1992"/>
    <text fill="#000000" font-family="sans-serif" font-size="12" lengthAdjust="spacingAndGlyphs" textLength="90" x="199" y="111.8008">Get is simulator</text>
    <polygon fill="#FEFECE" filter="url(#f1)" points="244,165.1992,256,177.1992,244,189.1992,232,177.1992,244,165.1992" style="stroke: #A80036; stroke-width: 1.5;"/>
    <rect fill="#000000" filter="url(#f1)" height="8" style="stroke: none; stroke-width: 1.0;" width="80" x="154" y="246.1992"/>
    <rect fill="#FEFECE" filter="url(#f1)" height="34.1328" rx="12.5" ry="12.5" style="stroke: #A80036; stroke-width: 1.5;" width="136" x="327" y="295.1992"/>
    <text fill="#000000" font-family="sans-serif" font-size="12" lengthAdjust="spacingAndGlyphs" textLength="116" x="337" y="316.8008">Generate public key</text>
    <rect fill="#000000" filter="url(#f1)" height="8" style="stroke: none; stroke-width: 1.0;" width="80" x="220" y="561.1992"/>
    <rect fill="#FEFECE" filter="url(#f1)" height="34.1328" rx="12.5" ry="12.5" style="stroke: #A80036; stroke-width: 1.5;" width="88" x="216" y="610.1992"/>
    <text fill="#000000" font-family="sans-serif" font-size="12" lengthAdjust="spacingAndGlyphs" textLength="68" x="226" y="631.8008">RegisterCall</text>
    <rect fill="#FEFECE" filter="url(#f1)" height="34.1328" rx="12.5" ry="12.5" style="stroke: #A80036; stroke-width: 1.5;" width="142" x="6" y="349.1992"/>
    <text fill="#000000" font-family="sans-serif" font-size="12" lengthAdjust="spacingAndGlyphs" textLength="122" x="16" y="370.8008">Get test device token</text>
    <rect fill="#000000" filter="url(#f1)" height="8" style="stroke: none; stroke-width: 1.0;" width="80" x="96" y="490.1992"/>
    <rect fill="#000000" filter="url(#f1)" height="8" style="stroke: none; stroke-width: 1.0;" width="80" x="254" y="246.1992"/>
    <rect fill="#FEFECE" filter="url(#f1)" height="34.1328" rx="12.5" ry="12.5" style="stroke: #A80036; stroke-width: 1.5;" width="227" x="79.5" y="295.1992"/>
    <text fill="#000000" font-family="sans-serif" font-size="12" lengthAdjust="spacingAndGlyphs" textLength="207" x="89.5" y="316.8008">RegisterForRemoteNotificationsTask</text>
    <polygon fill="#FEFECE" filter="url(#f1)" points="193,403.1992,205,415.1992,193,427.1992,181,415.1992,193,403.1992" style="stroke: #A80036; stroke-width: 1.5;"/>
    <ellipse cx="206" cy="494.1992" fill="none" filter="url(#f1)" rx="10" ry="10" style="stroke: #000000; stroke-width: 1.0;"/>
    <ellipse cx="206.5" cy="494.6992" fill="#000000" rx="6" ry="6" style="stroke: none; stroke-width: 1.0;"/>
    <path d="M244,49.3762 C244,58.4682 244,72.7262 244,84.6842 " fill="none" style="stroke: #A80036; stroke-width: 1.0;"/>
    <polygon fill="#A80036" points="244,89.9902,248,80.9902,244,84.9902,240,80.9902,244,89.9902" style="stroke: #A80036; stroke-width: 1.0;"/>
    <path d="M244,124.3142 C244,135.1152 244,149.2812 244,160.0822 " fill="none" style="stroke: #A80036; stroke-width: 1.0;"/>
    <polygon fill="#A80036" points="244,165.0842,248,156.0842,244,160.0842,240,156.0842,244,165.0842" style="stroke: #A80036; stroke-width: 1.0;"/>
    <text fill="#000000" font-family="sans-serif" font-size="13" lengthAdjust="spacingAndGlyphs" textLength="80" x="147.5" y="154.6254">Is simulator?</text>
    <path d="M239.386,184.7512 C230.084,197.9592 209.133,227.7102 199.293,241.6832 " fill="none" style="stroke: #A80036; stroke-width: 1.0;"/>
    <polygon fill="#A80036" points="196.213,246.0572,204.6648,241.0009,199.0914,241.9689,198.1235,236.3954,196.213,246.0572" style="stroke: #A80036; stroke-width: 1.0;"/>
    <text fill="#000000" font-family="sans-serif" font-size="13" lengthAdjust="spacingAndGlyphs" textLength="25" x="223" y="222.7676">true</text>
    <path d="M204.244,254.2572 C228.249,261.4232 289.637,279.7472 336.345,293.6902 " fill="none" style="stroke: #A80036; stroke-width: 1.0;"/>
    <polygon fill="#A80036" points="341.389,295.1962,333.9094,288.7888,336.5979,293.7659,331.6209,296.4545,341.389,295.1962" style="stroke: #A80036; stroke-width: 1.0;"/>
    <path d="M392.641,329.3452 C385.967,369.7812 363.496,476.7652 305,541.1992 C297.065,549.9395 285.041,555.8457 275.417,559.4826 " fill="none" style="stroke: #A80036; stroke-width: 1.0;"/>
    <polygon fill="#A80036" points="270.638,561.1805,280.4578,561.936,275.3494,559.5063,277.7791,554.3978,270.638,561.1805" style="stroke: #A80036; stroke-width: 1.0;"/>
    <text fill="#000000" font-family="sans-serif" font-size="13" lengthAdjust="spacingAndGlyphs" textLength="60" x="360" y="460.7676">PublicKey</text>
    <path d="M260,569.4251 C260,576.0865 260,591.8474 260,605.077 " fill="none" style="stroke: #A80036; stroke-width: 1.0;"/>
    <polygon fill="#A80036" points="260,610.1843,264,601.1843,260,605.1843,256,601.1843,260,610.1843" style="stroke: #A80036; stroke-width: 1.0;"/>
    <path d="M153.851,253.6132 C125.046,257.6932 88.0795,268.2562 69,295.1992 C59.0289,309.2802 62.4746,329.0952 67.5791,344.0512 " fill="none" style="stroke: #A80036; stroke-width: 1.0;"/>
    <polygon fill="#A80036" points="69.3568,348.9212,70.0286,339.0953,67.6425,344.2243,62.5135,341.8382,69.3568,348.9212" style="stroke: #A80036; stroke-width: 1.0;"/>
    <path d="M84.5924,383.4132 C97.3918,410.7472 122.796,465.0012 132.299,485.2942 " fill="none" style="stroke: #A80036; stroke-width: 1.0;"/>
    <polygon fill="#A80036" points="134.445,489.8772,134.2519,480.0303,132.3251,485.3489,127.0065,483.4221,134.445,489.8772" style="stroke: #A80036; stroke-width: 1.0;"/>
    <path d="M141.65,498.3432 C161.105,509.1692 225.478,544.9892 250.206,558.7495 " fill="none" style="stroke: #A80036; stroke-width: 1.0;"/>
    <polygon fill="#A80036" points="254.598,561.1935,248.6788,553.3218,250.229,558.7622,244.7886,560.3123,254.598,561.1935" style="stroke: #A80036; stroke-width: 1.0;"/>
    <text fill="#000000" font-family="sans-serif" font-size="13" lengthAdjust="spacingAndGlyphs" textLength="81" x="218" y="537.7676">DeviceToken</text>
    <path d="M248.614,184.7512 C257.916,197.9592 278.867,227.7102 288.707,241.6832 " fill="none" style="stroke: #A80036; stroke-width: 1.0;"/>
    <polygon fill="#A80036" points="291.787,246.0572,289.8765,236.3954,288.9086,241.9689,283.3352,241.0009,291.787,246.0572" style="stroke: #A80036; stroke-width: 1.0;"/>
    <text fill="#000000" font-family="sans-serif" font-size="13" lengthAdjust="spacingAndGlyphs" textLength="44" x="278" y="222.7676">default</text>
    <path d="M299.147,254.2572 C310.83,261.1972 340.134,278.6052 363.29,292.3612 " fill="none" style="stroke: #A80036; stroke-width: 1.0;"/>
    <polygon fill="#A80036" points="367.832,295.0602,362.1351,287.0262,363.5326,292.5077,358.0511,293.9052,367.832,295.0602" style="stroke: #A80036; stroke-width: 1.0;"/>
    <path d="M288.853,254.2572 C277.17,261.1972 247.866,278.6052 224.71,292.3612 " fill="none" style="stroke: #A80036; stroke-width: 1.0;"/>
    <polygon fill="#A80036" points="220.168,295.0602,229.9489,293.9052,224.4674,292.5077,225.8649,287.0262,220.168,295.0602" style="stroke: #A80036; stroke-width: 1.0;"/>
    <path d="M193,329.4262 C193,348.1242 193,378.6912 193,397.5602 " fill="none" style="stroke: #A80036; stroke-width: 1.0;"/>
    <polygon fill="#A80036" points="193,403.0152,197,394.0152,193,398.0152,189,394.0152,193,403.0152" style="stroke: #A80036; stroke-width: 1.0;"/>
    <text fill="#000000" font-family="sans-serif" font-size="13" lengthAdjust="spacingAndGlyphs" textLength="0" x="192.175" y="392.528"/>
    <path d="M188.14,422.7642 C177.594,437.0102 152.665,470.6862 141.535,485.7222 " fill="none" style="stroke: #A80036; stroke-width: 1.0;"/>
    <polygon fill="#A80036" points="138.33,490.0522,146.9005,485.1997,141.3055,486.034,140.4713,480.4389,138.33,490.0522" style="stroke: #A80036; stroke-width: 1.0;"/>
    <path d="M194.594,425.6412 C196.84,438.9462 200.956,463.3202 203.58,478.8672 " fill="none" style="stroke: #A80036; stroke-width: 1.0;"/>
    <polygon fill="#A80036" points="204.474,484.1592,206.9189,474.6187,203.6411,479.2291,199.0307,475.9513,204.474,484.1592" style="stroke: #A80036; stroke-width: 1.0;"/>
    <text fill="#000000" font-family="sans-serif" font-size="13" lengthAdjust="spacingAndGlyphs" textLength="40" x="203" y="460.7676">failure</text>
  </g>
</svg>
